<svg width="48" height="48" viewBox="0 0 48 48" fill="none" xmlns="http://www.w3.org/2000/svg">
<g clip-path="url(#clip0_5302_1203)">
<path d="M27.2163 18.6968C25.0185 18.6968 23.2305 20.4483 23.2305 22.6014C23.2305 24.7544 25.0185 26.506 27.2163 26.506C29.414 26.506 31.202 24.7544 31.202 22.6014C31.202 20.4483 29.4139 18.6968 27.2163 18.6968ZM27.2163 24.6691C26.0523 24.6691 25.1055 23.7415 25.1055 22.6014C25.1055 21.4612 26.0523 20.5335 27.2163 20.5335C28.3802 20.5335 29.327 21.4612 29.327 22.6014C29.327 23.7415 28.3802 24.6691 27.2163 24.6691Z" fill="white"/>
<path d="M44.5435 27.4408L47.7254 24.3237C48.0915 23.9651 48.0915 23.3835 47.7254 23.0248L42.3889 17.797V8.66425C42.3889 8.15711 41.9692 7.74585 41.4514 7.74585H36.2014C35.6836 7.74585 35.2639 8.15711 35.2639 8.66425V10.8172L29.4703 5.14154C28.2275 3.92411 26.2053 3.92411 24.9624 5.14154L21.8006 8.23894C20.6062 3.51845 16.2452 0.00878906 11.0625 0.00878906C9.6991 0.00878906 8.36747 0.249134 7.10475 0.723212C6.62128 0.90478 6.3796 1.43589 6.56485 1.90942C6.7501 2.38304 7.29235 2.6198 7.77582 2.43842C8.82357 2.04506 9.92944 1.84559 11.0626 1.84559C16.1287 1.84559 20.2501 5.88315 20.2501 10.8459C20.2501 15.8087 16.1287 19.8462 11.0626 19.8462C5.99653 19.8462 1.87509 15.8087 1.87509 10.8459C1.87509 9.73593 2.07863 8.65286 2.47997 7.62673C2.66522 7.15311 2.42344 6.622 1.93997 6.44053C1.45659 6.25896 0.914344 6.496 0.729094 6.96952C0.24525 8.20624 0 9.51046 0 10.8459C0 15.923 3.58275 20.1951 8.40132 21.3653L6.70725 23.0248C6.34116 23.3834 6.34116 23.965 6.70725 24.3237L9.88922 27.4408C10.0144 27.5634 10.1716 27.6469 10.3414 27.6853V41.5188H8.65388C8.1361 41.5188 7.71638 41.9301 7.71638 42.4372V46.1108C7.71638 46.6179 8.1361 47.0292 8.65388 47.0292H45.7789C46.2967 47.0292 46.7164 46.6179 46.7164 46.1108V42.4372C46.7164 41.9301 46.2967 41.5188 45.7789 41.5188H44.0914V27.6854C44.257 27.6481 44.4145 27.5672 44.5435 27.4408ZM37.1389 9.58265H40.5139V15.9602L37.1389 12.654V9.58265ZM26.2883 6.44043C26.5361 6.19752 26.8658 6.0638 27.2163 6.0638C27.5668 6.0638 27.8965 6.19752 28.1443 6.44043L45.7366 23.6742L43.8805 25.4925L27.8792 9.8173C27.513 9.45875 26.9195 9.45875 26.5533 9.8173L21.2907 14.9726C21.8278 13.6999 22.1249 12.3063 22.1249 10.8458C22.1249 10.7381 22.1229 10.6309 22.1197 10.524L26.2883 6.44043ZM8.69597 23.6742L10.7339 21.6778C10.8431 21.6809 10.9525 21.6829 11.0625 21.6829C12.5534 21.6829 13.976 21.3919 15.2752 20.8657L10.5522 25.4925L8.69597 23.6742ZM44.8414 45.1924H9.59138V43.3556H44.8414V45.1924ZM30.7789 41.5188H23.6539V30.6817H30.7789V41.5188ZM32.6539 41.5188V29.7633C32.6539 29.2561 32.2342 28.8449 31.7164 28.8449H22.7164C22.1986 28.8449 21.7789 29.2561 21.7789 29.7633V41.5188H12.2164V26.46L27.2164 11.7656L42.2164 26.46V41.5188H32.6539Z" fill="white"/>
<path d="M11.0171 13.8968C10.216 13.9025 9.98671 13.8666 9.38052 13.4781C8.94712 13.2004 8.36624 13.3195 8.08274 13.7439C7.79934 14.1684 7.92074 14.7376 8.35405 15.0152C9.0313 15.4493 9.53334 15.6294 10.1376 15.6971V15.9827C10.1376 16.4899 10.5574 16.9011 11.0751 16.9011C11.5927 16.9011 12.0126 16.4899 12.0126 15.9827V15.5809C13.2243 15.1972 13.9991 14.1468 14.1771 13.1097C14.4195 11.697 13.6376 10.4206 12.2316 9.93363C11.4784 9.6728 10.6463 9.35843 10.1856 9.00448C10.0667 8.9131 10.0157 8.68378 10.0613 8.44674C10.0851 8.32331 10.1958 7.91094 10.6203 7.78595C11.4131 7.55286 12.1273 8.04972 12.1345 8.05477C12.5497 8.35756 13.1343 8.27151 13.4435 7.86484C13.7497 7.46221 13.6613 6.88913 13.2569 6.58377C12.9915 6.38952 12.5489 6.15414 12.0125 6.01427V5.70844C12.0125 5.20121 11.5926 4.79004 11.075 4.79004C10.5573 4.79004 10.1375 5.20121 10.1375 5.70844V6.01133C10.1185 6.01656 10.0997 6.02125 10.0807 6.02685C9.12524 6.30806 8.4118 7.10468 8.21887 8.10592C8.04055 9.03102 8.35068 9.92913 9.0284 10.4498C9.70077 10.9664 10.6649 11.3393 11.6066 11.6655C12.3597 11.9263 12.3819 12.4916 12.328 12.8053C12.2384 13.3275 11.7899 13.8917 11.0171 13.8968Z" fill="white"/>
<path d="M3.90234 4.75037C4.42011 4.75037 4.83984 4.33919 4.83984 3.83197C4.83984 3.32476 4.42011 2.91357 3.90234 2.91357C3.38458 2.91357 2.96484 3.32476 2.96484 3.83197C2.96484 4.33919 3.38458 4.75037 3.90234 4.75037Z" fill="white"/>
</g>
<defs>
<clipPath id="clip0_5302_1203">
<rect width="48" height="48" fill="white"/>
</clipPath>
</defs>
</svg>
