<svg width="48" height="48" viewBox="0 0 48 48" fill="none" xmlns="http://www.w3.org/2000/svg">
<g clip-path="url(#clip0_5302_5107)">
<path d="M43.7774 0.231445H3.72966C1.67316 0.231445 0 1.90451 0 3.96101V26.5089C0 28.5654 1.67316 30.2385 3.72966 30.2385H12.9544C13.4742 30.2385 13.8955 29.8171 13.8955 29.2973C13.8955 28.7776 13.4741 28.3562 12.9543 28.3562H3.72966C2.71106 28.3562 1.88241 27.5275 1.88241 26.5089V3.96101C1.88241 2.94241 2.71106 2.11376 3.72966 2.11376H43.7774C44.796 2.11376 45.6247 2.94241 45.6247 3.96101V26.5089C45.6247 27.5275 44.796 28.3562 43.7774 28.3562H40.951C40.4312 28.3562 40.0099 28.7776 40.0099 29.2973C40.0099 29.8171 40.4313 30.2385 40.951 30.2385H43.7774C45.8339 30.2385 47.507 28.5654 47.507 26.5089V3.96101C47.507 1.90451 45.8339 0.231445 43.7774 0.231445Z" fill="#111827"/>
<path d="M47.9972 34.8102C47.9733 34.0681 47.5079 33.4217 46.8119 33.1634V33.1633L31.2449 27.388C30.1906 26.9971 29.0419 27.2479 28.2469 28.0428C27.4518 28.8376 27.2007 29.9863 27.5914 31.0404L33.3521 46.5818C33.6115 47.2816 34.2611 47.7471 35.007 47.7679C35.0245 47.7685 35.0417 47.7687 35.059 47.7687C35.7841 47.7687 36.4345 47.3443 36.7255 46.676L38.3189 43.0178L41.7736 46.4735C42.7569 47.4571 44.3571 47.4574 45.3407 46.4741L46.6734 45.1417C47.1498 44.6654 47.4123 44.032 47.4124 43.3582C47.4125 42.6845 47.1502 42.0511 46.6739 41.5746L43.2629 38.1628L46.9206 36.5299C47.5986 36.2272 48.0212 35.5522 47.9972 34.8102ZM41.2466 37.0013C40.9636 37.1276 40.761 37.385 40.7047 37.6896C40.6484 37.9942 40.7456 38.3071 40.9646 38.5263L45.3427 42.9056C45.5922 43.1552 45.5922 43.5611 45.3426 43.8106L44.0099 45.1429C43.8891 45.2638 43.7284 45.3303 43.5575 45.3303H43.5574C43.3864 45.3303 43.2257 45.2637 43.1049 45.1428L38.6734 40.7101C38.4533 40.4898 38.1386 40.3931 37.8326 40.4508C37.5267 40.5087 37.2692 40.7142 37.1449 40.9997L35.0625 45.7803L29.3564 30.3863C29.158 29.8508 29.4757 29.4761 29.5778 29.374C29.6564 29.2954 29.8968 29.0889 30.2479 29.0889C30.3526 29.0889 30.4673 29.1073 30.5902 29.1529L46.0118 34.8742L41.2466 37.0013ZM46.1578 34.9285C46.1576 34.9283 46.1574 34.9282 46.1571 34.9281L46.4845 34.0458L46.1578 34.9285Z" fill="#111827"/>
<path d="M26.8053 25.2639L24.1458 22.6042C23.7782 22.2368 23.1824 22.2368 22.8148 22.6042C22.4472 22.9718 22.4472 23.5676 22.8147 23.9352L25.4743 26.5949C25.6581 26.7787 25.8989 26.8705 26.1398 26.8705C26.3806 26.8705 26.6216 26.7787 26.8053 26.5949C27.1729 26.2273 27.1729 25.6315 26.8053 25.2639Z" fill="#111827"/>
<path d="M24.1985 28.3643H20.4373C19.9174 28.3643 19.4961 28.7857 19.4961 29.3054C19.4961 29.8252 19.9175 30.2466 20.4373 30.2466H24.1985C24.7182 30.2466 25.1397 29.8252 25.1397 29.3054C25.1397 28.7857 24.7182 28.3643 24.1985 28.3643Z" fill="#111827"/>
<path d="M29.5974 19.2026C29.0777 19.2026 28.6562 19.624 28.6562 20.1438V23.905C28.6562 24.4248 29.0777 24.8462 29.5974 24.8462C30.1172 24.8462 30.5386 24.4248 30.5386 23.905V20.1438C30.5386 19.624 30.1172 19.2026 29.5974 19.2026Z" fill="#111827"/>
<path d="M37.4968 20.9509C37.1292 20.5835 36.5334 20.5834 36.1658 20.9509L33.5062 23.6105C33.1386 23.9781 33.1386 24.5739 33.5061 24.9415C33.6899 25.1253 33.9308 25.2172 34.1717 25.2172C34.4126 25.2172 34.6535 25.1253 34.8372 24.9415L37.4968 22.2819C37.8644 21.9144 37.8644 21.3185 37.4968 20.9509Z" fill="#111827"/>
<path d="M25.7155 32.7355C25.3479 32.3681 24.752 32.3681 24.3845 32.7355L21.7249 35.3952C21.3573 35.7628 21.3574 36.3587 21.7249 36.7263C21.9086 36.91 22.1495 37.0019 22.3904 37.0019C22.6313 37.0019 22.8722 36.91 23.0559 36.7263L25.7155 34.0666C26.0831 33.699 26.083 33.1031 25.7155 32.7355Z" fill="#111827"/>
<path d="M16.6902 30.2412C17.2115 30.2412 17.6342 29.8185 17.6342 29.2971C17.6342 28.7757 17.2115 28.353 16.6902 28.353C16.1688 28.353 15.7461 28.7757 15.7461 29.2971C15.7461 29.8185 16.1688 30.2412 16.6902 30.2412Z" fill="#111827"/>
<path d="M16.524 14.1203C17.3488 13.7622 17.8468 12.9219 17.8468 11.6457C17.8468 9.43586 16.3372 8.90674 14.7187 8.90674H11.7152C11.2639 8.90674 10.8281 9.12461 10.8281 9.5448V19.6604C10.8281 19.9873 11.1705 20.283 11.7152 20.283H15.0144C16.773 20.283 18.1269 19.4115 18.1269 16.9838V16.657C18.1269 15.1006 17.4733 14.4938 16.524 14.1203ZM12.8357 10.6809H14.5631C15.3568 10.6809 15.8237 11.1788 15.8237 11.9881C15.8237 12.7817 15.4191 13.3264 14.5787 13.3264H12.8357V10.6809ZM16.1039 16.8125C16.1039 17.9952 15.5437 18.5089 14.5943 18.5089H12.8358V14.9139H14.5943C15.5437 14.9139 16.1039 15.3496 16.1039 16.5635V16.8125Z" fill="#111827"/>
<path d="M25.9858 8.90674C25.4722 8.90674 24.9742 9.09349 24.9742 9.52924V16.8125C24.9742 18.0264 24.3362 18.6022 23.2623 18.6022C22.1885 18.6022 21.5505 18.0264 21.5505 16.8125V9.52924C21.5505 9.09339 21.0369 8.90674 20.5389 8.90674C20.0253 8.90674 19.5273 9.09349 19.5273 9.52924V16.8125C19.5273 19.4114 21.1614 20.3764 23.2623 20.3764C25.3477 20.3764 26.9973 19.4114 26.9973 16.8125V9.52924C26.9973 9.09339 26.4838 8.90674 25.9858 8.90674Z" fill="#111827"/>
<path d="M35.3378 8.90674C35.011 8.90674 34.8709 9.0468 34.7309 9.31127L32.3498 13.8089L29.9843 9.31127C29.8442 9.03124 29.6886 8.90674 29.3618 8.90674C28.8171 8.90674 28.0234 9.24902 28.0234 9.74711C28.0234 9.7938 28.039 9.87161 28.0701 9.94943L31.2916 15.5208C31.3227 15.5675 31.3383 15.6453 31.3383 15.7231V19.6449C31.3383 20.0651 31.8518 20.283 32.3498 20.283C32.8634 20.283 33.3614 20.0651 33.3614 19.6449V15.7231C33.3614 15.6453 33.3925 15.5675 33.4236 15.5208L36.6295 9.94943C36.6762 9.87161 36.6762 9.7938 36.6762 9.74711C36.6762 9.24902 35.8825 8.90674 35.3378 8.90674Z" fill="#111827"/>
</g>
<defs>
<clipPath id="clip0_5302_5107">
<rect width="48" height="48" fill="white"/>
</clipPath>
</defs>
</svg>
