<?xml version="1.0" encoding="UTF-8"?>
<svg id="Layer_1" xmlns="http://www.w3.org/2000/svg" version="1.1" viewBox="0 0 1080 1080">
  <!-- Generator: Adobe Illustrator 29.7.1, SVG Export Plug-In . SVG Version: 2.1.1 Build 8)  -->
  <defs>
    <style>
      .st0 {
        fill: #fff;
      }
    </style>
  </defs>
  <g>
    <path class="st0" d="M298.43,520.36v-95.04h33.88c7.39,0,13.52,1.35,18.38,4.04,4.86,2.69,8.49,6.37,10.91,11.02,2.41,4.66,3.62,9.89,3.62,15.71s-1.21,11.1-3.64,15.76c-2.43,4.66-6.08,8.34-10.95,11.04-4.87,2.71-10.99,4.06-18.35,4.06h-23.3v-12.16h22c4.67,0,8.46-.81,11.37-2.44,2.91-1.62,5.04-3.84,6.4-6.66,1.36-2.81,2.04-6.02,2.04-9.61s-.68-6.78-2.04-9.56c-1.36-2.78-3.5-4.97-6.43-6.54-2.92-1.58-6.77-2.37-11.53-2.37h-18.01v82.74h-14.34Z"/>
    <path class="st0" d="M380.51,425.32h16.29l24.83,43.21h1.02l24.83-43.21h16.29l-34.48,57.73v37.31h-14.29v-37.31l-34.48-57.73Z"/>
    <path class="st0" d="M483.2,520.36v-95.04h14.34v45.39h1.16l39.86-45.39h18.05l-38.33,42.79,38.47,52.25h-17.26l-30.72-42.46-11.23,12.9v29.56h-14.34Z"/>
  </g>
  <g>
    <path class="st0" d="M312.71,558.45v94.66h-14.28v-94.66h14.28Z"/>
    <path class="st0" d="M409.91,558.45v94.66h-13.13l-48.12-69.42h-.88v69.42h-14.28v-94.66h13.22l48.16,69.52h.88v-69.52h14.14Z"/>
    <path class="st0" d="M438.99,558.45l26.35,77.1h1.06l26.35-77.1h15.44l-34.06,94.66h-16.5l-34.06-94.66h15.44Z"/>
    <path class="st0" d="M521.81,653.11v-94.66h59.35v12.29h-45.07v28.84h41.97v12.25h-41.97v28.98h45.62v12.29h-59.9Z"/>
    <path class="st0" d="M651.92,583.31c-.49-4.38-2.53-7.77-6.1-10.19-3.57-2.42-8.07-3.63-13.5-3.63-3.88,0-7.24.61-10.08,1.83-2.84,1.22-5.03,2.88-6.59,4.99-1.56,2.11-2.33,4.51-2.33,7.19,0,2.25.53,4.19,1.59,5.82s2.46,3,4.21,4.09c1.74,1.09,3.61,2,5.62,2.73,2,.72,3.93,1.32,5.78,1.78l9.24,2.4c3.02.74,6.12,1.74,9.29,3,3.17,1.26,6.12,2.93,8.83,4.99,2.71,2.06,4.91,4.62,6.59,7.67,1.68,3.05,2.52,6.7,2.52,10.95,0,5.36-1.38,10.12-4.14,14.28-2.76,4.16-6.75,7.44-11.97,9.85-5.22,2.4-11.53,3.6-18.93,3.6s-13.22-1.12-18.4-3.37-9.23-5.45-12.16-9.59c-2.93-4.14-4.55-9.07-4.85-14.77h14.33c.28,3.42,1.39,6.26,3.35,8.53,1.96,2.27,4.47,3.94,7.53,5.04,3.07,1.09,6.43,1.64,10.1,1.64,4.04,0,7.63-.64,10.79-1.92,3.16-1.28,5.65-3.07,7.46-5.36,1.82-2.3,2.73-4.98,2.73-8.07,0-2.8-.79-5.1-2.38-6.89-1.59-1.79-3.73-3.27-6.42-4.44-2.7-1.17-5.74-2.2-9.13-3.1l-11.19-3.05c-7.58-2.06-13.58-5.1-18-9.11-4.42-4.01-6.63-9.31-6.63-15.9,0-5.45,1.48-10.21,4.44-14.28,2.96-4.07,6.96-7.23,12.02-9.5,5.05-2.26,10.75-3.4,17.1-3.4s12.07,1.13,16.99,3.37c4.91,2.25,8.79,5.34,11.62,9.27,2.83,3.93,4.31,8.44,4.44,13.52h-13.77Z"/>
    <path class="st0" d="M679.38,570.74v-12.29h73.26v12.29h-29.53v82.37h-14.24v-82.37h-29.49Z"/>
    <path class="st0" d="M772.33,653.98c-2.53,0-4.7-.9-6.52-2.7-1.82-1.8-2.73-3.98-2.73-6.54s.91-4.69,2.73-6.49c1.82-1.8,3.99-2.7,6.52-2.7s4.7.9,6.52,2.7c1.82,1.8,2.73,3.97,2.73,6.49,0,1.69-.42,3.24-1.27,4.65-.85,1.4-1.96,2.52-3.35,3.35-1.39.83-2.93,1.25-4.62,1.25Z"/>
  </g>
</svg>