<svg width="48" height="48" viewBox="0 0 48 48" fill="none" xmlns="http://www.w3.org/2000/svg">
<path d="M5.20804 44.8096H42.8992C44.2574 44.8121 45.5603 44.2719 46.5183 43.3088C47.476 42.3461 48.0095 41.0403 47.9999 39.6821V26.6889C47.9999 23.847 45.7415 21.5077 42.8992 21.5077H41.3258L27.4911 8.56391C27.7382 8.05258 27.8661 7.49176 27.8657 6.92381C27.8644 4.81853 26.1564 3.113 24.0511 3.11426C21.9458 3.11552 20.2403 4.82357 20.2416 6.92885C20.2411 7.49512 20.3691 8.05384 20.6161 8.56307L6.78144 21.5077H5.20804C2.36577 21.5077 0 23.847 0 26.6889V39.6821C0 42.5244 2.36577 44.8096 5.20804 44.8096ZM24.0536 4.83657C25.2101 4.83657 26.1476 5.77407 26.1476 6.93052C26.1476 8.08698 25.2101 9.02448 24.0536 9.02448C22.8972 9.02448 21.9597 8.08698 21.9597 6.93052C21.9609 5.77449 22.8976 4.83783 24.0536 4.83657ZM21.6942 9.90828C23.0733 11.0131 25.0352 11.0119 26.4131 9.90493L38.812 21.5077H9.29528L21.6942 9.90828ZM46.2818 39.6553C46.2818 41.5529 44.7432 43.0915 42.8455 43.0915H5.15435C3.2567 43.0915 1.71812 41.5529 1.71812 39.6553V26.662C1.71812 24.7644 3.2567 23.2258 5.15435 23.2258H42.8455C44.7432 23.2258 46.2818 24.7644 46.2818 26.662V39.6553Z" fill="#111827"/>
<path d="M11.3292 37.0165C11.7478 37.0165 12.1346 36.8445 12.1346 36.5009V33.964H12.8972L14.3682 36.795C14.4718 36.9926 14.6828 37.1096 14.9051 37.0936C15.3988 37.0936 15.9575 36.6364 15.9575 36.2174C15.9584 36.1482 15.9399 36.0798 15.9039 36.0211L14.5935 33.6461C15.3451 33.3562 15.893 32.6507 15.893 31.4481C15.893 29.6977 14.7227 29.1318 13.2512 29.1318H11.0285C10.89 29.1356 10.7583 29.1948 10.6635 29.2963C10.5687 29.3974 10.5184 29.5324 10.5238 29.6713V36.5005C10.5238 36.8445 10.9106 37.0165 11.3292 37.0165ZM12.1346 30.6352H13.2512C13.8527 30.6352 14.2176 30.9036 14.2176 31.6553C14.2176 32.407 13.8527 32.6755 13.2512 32.6755H12.1346V30.6352Z" fill="#111827"/>
<path d="M18.5868 36.9707H22.4094C22.7638 36.9707 22.914 36.6272 22.914 36.2837C22.914 35.8864 22.7315 35.5748 22.4094 35.5748H19.5423V33.7493H21.1422C21.4966 33.7493 21.6472 33.4057 21.6472 33.1159C21.6472 32.7723 21.4643 32.4607 21.1422 32.4607H19.5423V30.6352H22.4094C22.7315 30.6352 22.914 30.2703 22.914 29.873C22.914 29.5291 22.7638 29.1318 22.4094 29.1318H18.5868C18.2214 29.1318 17.8242 29.3382 17.8242 29.6818V36.5005C17.8242 36.8445 18.2214 36.9707 18.5868 36.9707Z" fill="#111827"/>
<path d="M25.5583 37.0163C25.9769 37.0163 26.4173 36.8443 26.4173 36.5008V32.8498L28.4467 36.5654C28.651 36.9412 28.9731 37.0163 29.3594 37.0163C29.7785 37.0163 30.1757 36.8443 30.1757 36.5008V29.6715C30.1757 29.3171 29.789 29.1665 29.3703 29.1665C28.9517 29.1665 28.565 29.3171 28.565 29.6715V33.3225L26.8091 30.0042C26.4014 29.2202 26.1568 29.1665 25.5558 29.1665C25.1367 29.1665 24.6992 29.3276 24.6992 29.682V36.5008C24.6992 36.8443 25.1397 37.0163 25.5583 37.0163Z" fill="#111827"/>
<path d="M32.4499 30.6352H33.9319V36.5009C33.9319 36.8445 34.3723 37.0165 34.7909 37.0165C35.2096 37.0165 35.65 36.8445 35.65 36.5009V30.6352H37.0888C37.4109 30.6352 37.5938 30.2807 37.5938 29.873C37.5938 29.5186 37.4432 29.1318 37.0888 29.1318H32.4499C32.0955 29.1318 31.9453 29.5186 31.9453 29.873C31.9453 30.2807 32.1278 30.6352 32.4499 30.6352Z" fill="#111827"/>
</svg>
